<svg width="20" height="16" viewBox="0 0 20 16" fill="none" xmlns="http://www.w3.org/2000/svg">
<path d="M16.175 13.625H3.825C3.56375 13.625 3.35 13.8359 3.35 14.0938V15.0312C3.35 15.2891 3.56375 15.5 3.825 15.5H16.175C16.4362 15.5 16.65 15.2891 16.65 15.0312V14.0938C16.65 13.8359 16.4362 13.625 16.175 13.625ZM18.075 4.25C17.2883 4.25 16.65 4.87988 16.65 5.65625C16.65 5.86426 16.6975 6.05762 16.7806 6.23633L14.6312 7.50781C14.1741 7.77734 13.5833 7.625 13.3191 7.16797L10.8995 2.99023C11.2172 2.73242 11.425 2.3457 11.425 1.90625C11.425 1.12988 10.7867 0.5 10 0.5C9.21328 0.5 8.575 1.12988 8.575 1.90625C8.575 2.3457 8.78281 2.73242 9.10047 2.99023L6.68094 7.16797C6.41672 7.625 5.82297 7.77734 5.36875 7.50781L3.22234 6.23633C3.3025 6.06055 3.35297 5.86426 3.35297 5.65625C3.35297 4.87988 2.71469 4.25 1.92797 4.25C1.14125 4.25 0.5 4.87988 0.5 5.65625C0.5 6.43262 1.13828 7.0625 1.925 7.0625C2.00219 7.0625 2.07938 7.05078 2.15359 7.03906L4.3 12.6875H15.7L17.8464 7.03906C17.9206 7.05078 17.9978 7.0625 18.075 7.0625C18.8617 7.0625 19.5 6.43262 19.5 5.65625C19.5 4.87988 18.8617 4.25 18.075 4.25Z" fill="#FFD233"/>
</svg>
