<svg width="13" height="13" viewBox="0 0 13 13" fill="none" xmlns="http://www.w3.org/2000/svg">
<path d="M12.284 5.89667L0.950667 0.563334C0.836544 0.509634 0.70953 0.489409 0.584373 0.505008C0.459216 0.520607 0.341051 0.571389 0.2436 0.651457C0.14615 0.731526 0.0734118 0.837596 0.0338324 0.95735C-0.00574688 1.0771 -0.0105434 1.20563 0.0199999 1.328L0.828 4.56067L6 6.5L0.828 8.43933L0.0199999 11.672C-0.0111181 11.7945 -0.00672188 11.9233 0.0326744 12.0433C0.0720706 12.1634 0.144838 12.2697 0.242464 12.3499C0.340091 12.4301 0.458539 12.4809 0.583955 12.4963C0.709371 12.5116 0.836568 12.4909 0.950667 12.4367L12.284 7.10333C12.3985 7.0495 12.4954 6.96417 12.5632 6.85733C12.631 6.75049 12.6671 6.62655 12.6671 6.5C12.6671 6.37345 12.631 6.24951 12.5632 6.14267C12.4954 6.03583 12.3985 5.9505 12.284 5.89667Z" fill="#C8C8C8"/>
</svg>
