<svg width="19" height="16" viewBox="0 0 19 16" fill="none" xmlns="http://www.w3.org/2000/svg">
<g clip-path="url(#clip0_3_251)">
<path d="M15.675 13.625H3.325C3.06375 13.625 2.85 13.8359 2.85 14.0938V15.0312C2.85 15.2891 3.06375 15.5 3.325 15.5H15.675C15.9362 15.5 16.15 15.2891 16.15 15.0312V14.0938C16.15 13.8359 15.9362 13.625 15.675 13.625ZM17.575 4.25C16.7883 4.25 16.15 4.87988 16.15 5.65625C16.15 5.86426 16.1975 6.05762 16.2806 6.23633L14.1312 7.50781C13.6741 7.77734 13.0833 7.625 12.8191 7.16797L10.3995 2.99023C10.7172 2.73242 10.925 2.3457 10.925 1.90625C10.925 1.12988 10.2867 0.5 9.5 0.5C8.71328 0.5 8.075 1.12988 8.075 1.90625C8.075 2.3457 8.28281 2.73242 8.60047 2.99023L6.18094 7.16797C5.91672 7.625 5.32297 7.77734 4.86875 7.50781L2.72234 6.23633C2.8025 6.06055 2.85297 5.86426 2.85297 5.65625C2.85297 4.87988 2.21469 4.25 1.42797 4.25C0.64125 4.25 0 4.87988 0 5.65625C0 6.43262 0.638281 7.0625 1.425 7.0625C1.50219 7.0625 1.57938 7.05078 1.65359 7.03906L3.8 12.6875H15.2L17.3464 7.03906C17.4206 7.05078 17.4978 7.0625 17.575 7.0625C18.3617 7.0625 19 6.43262 19 5.65625C19 4.87988 18.3617 4.25 17.575 4.25Z" fill="#A0A0A0"/>
<path d="M11.2363 10.231V11H7.83203V10.3438L9.44189 8.61768C9.60368 8.43766 9.73128 8.2793 9.82471 8.14258C9.91813 8.00358 9.98535 7.87939 10.0264 7.77002C10.0697 7.65837 10.0913 7.55241 10.0913 7.45215C10.0913 7.30176 10.0662 7.17301 10.0161 7.06592C9.96598 6.95654 9.89193 6.87223 9.79395 6.81299C9.69824 6.75374 9.57975 6.72412 9.43848 6.72412C9.28809 6.72412 9.1582 6.76058 9.04883 6.8335C8.94173 6.90641 8.8597 7.00781 8.80273 7.1377C8.74805 7.26758 8.7207 7.41455 8.7207 7.57861H7.73291C7.73291 7.28239 7.80355 7.01123 7.94482 6.76514C8.0861 6.51676 8.28548 6.31966 8.54297 6.17383C8.80046 6.02572 9.10579 5.95166 9.45898 5.95166C9.80762 5.95166 10.1016 6.00863 10.3408 6.12256C10.5824 6.23421 10.7646 6.396 10.8877 6.60791C11.013 6.81755 11.0757 7.0682 11.0757 7.35986C11.0757 7.52393 11.0495 7.68457 10.9971 7.8418C10.9447 7.99674 10.8695 8.15169 10.7715 8.30664C10.6758 8.45931 10.5596 8.61426 10.4229 8.77148C10.2861 8.92871 10.1346 9.09163 9.96826 9.26025L9.10352 10.231H11.2363Z" fill="white"/>
</g>
<defs>
<clipPath id="clip0_3_251">
<rect width="19" height="15" fill="white" transform="translate(0 0.5)"/>
</clipPath>
</defs>
</svg>
